<svg xmlns="http://www.w3.org/2000/svg" width="221" height="58" viewBox="0 0 221 58" fill="none"><g clip-path="url(#clip0_924_933)"><path d="M29.2771 19.1802H24.7578L31.206 32.6261L33.4484 27.947L29.2771 19.1802Z" fill="#EB7521"></path><path d="M58.18 27.5458C58.1695 27.3106 58.1459 27.0776 58.1281 26.8433C58.1113 26.604 58.0976 26.362 58.074 26.124C58.0412 25.8059 57.9985 25.4909 57.9575 25.1754C57.9384 25.0281 57.922 24.8795 57.9002 24.7331C57.8461 24.3619 57.7801 23.9948 57.711 23.6281C57.695 23.5434 57.6818 23.4577 57.6641 23.3725C57.584 22.9673 57.494 22.5653 57.3971 22.1656C57.387 22.1239 57.3779 22.0817 57.367 22.0409C57.2619 21.6135 57.1459 21.1902 57.0213 20.7714C57.0181 20.7578 57.0145 20.7451 57.0108 20.7334C57.0035 20.7084 56.994 20.6853 56.9867 20.6604L54.1111 26.585C54.1898 27.379 54.2389 28.1844 54.2389 29.0002C54.2389 42.8064 42.9661 54.0361 29.1093 54.0361C21.7904 54.0361 15.1943 50.9025 10.5986 45.9115V36.0728H17.4758C22.1661 36.0728 25.9803 32.2725 25.9803 27.6002C25.9803 22.9274 22.1657 19.1276 17.4758 19.1276H8.02956C7.43997 20.3907 6.96138 21.7128 6.60289 23.0842V23.091H17.4758C19.972 23.091 22.0019 25.1133 22.0019 27.6002C22.0019 30.0862 19.972 32.1094 17.4758 32.1094H6.64793V47.4489C7.83531 48.8806 9.15916 50.1977 10.5986 51.3806C10.6131 51.3928 10.6286 51.4055 10.6441 51.4187C10.9652 51.6797 11.2937 51.9376 11.6272 52.1864C11.7491 52.2771 11.8733 52.3646 11.997 52.4525C12.2304 52.6225 12.4629 52.7915 12.7013 52.9533C12.8459 53.0517 12.9924 53.1455 13.1389 53.2411C13.3627 53.3889 13.5875 53.5334 13.8145 53.6739C13.9692 53.7687 14.1252 53.8625 14.2822 53.9545C14.5087 54.0877 14.738 54.2183 14.9687 54.3479C15.1274 54.4354 15.2857 54.5228 15.4477 54.6076C15.6856 54.7349 15.9277 54.8555 16.1692 54.9765C16.3253 55.054 16.4813 55.1315 16.6383 55.2068C16.9053 55.3341 17.1755 55.4529 17.4467 55.5721C17.5832 55.631 17.7187 55.694 17.8566 55.752C18.2555 55.9174 18.6591 56.077 19.0667 56.2274C19.0785 56.231 19.0908 56.2365 19.1013 56.2406C19.5216 56.3929 19.9461 56.5334 20.3742 56.668C20.5143 56.7124 20.6567 56.7514 20.7982 56.7926C21.0889 56.8783 21.3805 56.9626 21.6757 57.0423C21.845 57.0867 22.0151 57.1257 22.1848 57.167C22.4573 57.2331 22.7307 57.298 23.0064 57.3555C23.1866 57.3936 23.3663 57.4298 23.5482 57.4647C23.8194 57.5155 24.0919 57.5654 24.3657 57.6084C24.5495 57.6397 24.7338 57.6691 24.9176 57.695C25.1983 57.7353 25.4812 57.7702 25.766 57.8028C25.9439 57.8223 26.1204 57.8445 26.2992 57.8622C26.6104 57.8903 26.9238 57.9125 27.2382 57.932C27.3906 57.9424 27.5435 57.956 27.6959 57.9628C28.1635 57.985 28.6348 57.9982 29.1084 57.9982C45.1839 57.9982 58.2168 45.0141 58.2168 28.9975C58.2178 28.5126 58.2046 28.0281 58.18 27.5458ZM29.1093 3.96484C39.0073 3.96484 47.5855 9.69681 51.679 18.0054L45.8231 30.0653L40.171 18.2682L32.2725 34.7503L34.3797 39.0891L40.1719 27.0019L45.961 39.0859L56.1137 18.1776C55.4718 16.5909 54.697 15.0744 53.7967 13.6426C53.4955 13.1626 53.1803 12.6958 52.8523 12.2353C52.815 12.1823 52.7777 12.1293 52.739 12.0763C52.2504 11.4 51.7327 10.746 51.189 10.1156C51.1322 10.0494 51.0758 9.9837 51.0184 9.91934C50.4825 9.3093 49.9243 8.72237 49.3406 8.16036C49.2551 8.07788 49.1673 7.99584 49.0822 7.91471C48.7724 7.62329 48.4558 7.33866 48.1346 7.06129C48.0405 6.98061 47.9481 6.89858 47.8526 6.82017C47.676 6.6697 47.4945 6.52285 47.3135 6.37782C47.187 6.2772 47.0578 6.17749 46.9309 6.07869C46.6638 5.87156 46.3909 5.66988 46.117 5.47136C45.955 5.3567 45.794 5.23977 45.6298 5.12646C45.4605 5.01089 45.2913 4.89758 45.1193 4.78382C44.9301 4.65918 44.7395 4.53862 44.547 4.41806C44.3236 4.27847 44.0998 4.14295 43.8733 4.0088C43.6613 3.88597 43.4479 3.7627 43.2355 3.6435C43.0817 3.55784 42.9256 3.47308 42.7696 3.3906C42.4675 3.23061 42.1623 3.07379 41.8538 2.92377C41.721 2.85896 41.5868 2.79777 41.4535 2.73614C41.1987 2.61603 40.9417 2.50091 40.6833 2.38851C40.5482 2.32959 40.4121 2.27112 40.2766 2.21492C39.9258 2.0708 39.5755 1.93075 39.2198 1.79931C39.1078 1.75852 38.995 1.72227 38.8827 1.67966C38.5869 1.57497 38.2881 1.47526 37.9869 1.37872C37.8736 1.34246 37.7621 1.30484 37.6484 1.2704C37.2686 1.15482 36.8846 1.04605 36.4983 0.945433C36.3919 0.917333 36.2864 0.891952 36.1799 0.865665C35.8414 0.781818 35.5007 0.703409 35.159 0.630893C35.0726 0.612764 34.9871 0.593275 34.902 0.575599C34.4953 0.494018 34.0845 0.421955 33.6719 0.357597C33.5686 0.340827 33.4639 0.326324 33.3598 0.310461C32.9772 0.255167 32.5909 0.204406 32.2024 0.164975C32.1519 0.159083 32.1019 0.151831 32.0509 0.146846C31.6219 0.103336 31.1884 0.0725164 30.7548 0.0489486C30.6506 0.0430566 30.5465 0.0376179 30.4423 0.0330856C29.9987 0.0131436 29.5565 0 29.1093 0C13.0334 0 0 12.9836 0 28.9993C0 29.448 0.0131931 29.8917 0.0332101 30.3341C0.0400341 30.4678 0.0486778 30.5988 0.0559567 30.7311C0.074609 31.0579 0.100085 31.3833 0.130566 31.7069C0.142394 31.8361 0.153312 31.9671 0.166505 32.0962C0.211999 32.5177 0.264316 32.9361 0.326642 33.3512C0.343929 33.4641 0.365766 33.5751 0.383963 33.6866C0.434461 33.9952 0.488598 34.3021 0.549104 34.608C0.582314 34.7793 0.619618 34.9516 0.655558 35.1229C0.708785 35.374 0.768382 35.621 0.827978 35.8693C0.870741 36.042 0.91123 36.2174 0.955814 36.3906C1.05089 36.7486 1.15371 37.1048 1.26107 37.4584C1.32658 37.6727 1.39892 37.8835 1.46852 38.0956C1.52584 38.266 1.5818 38.4373 1.64231 38.6064C1.72283 38.8375 1.80745 39.0691 1.8948 39.2967C1.94393 39.4245 1.99488 39.5505 2.04538 39.6765C2.37702 40.5113 2.74643 41.3258 3.15177 42.1189C3.18635 42.1878 3.22229 42.2571 3.25823 42.326C3.71817 43.2085 4.22041 44.0673 4.76679 44.894V35.185C4.25772 33.2057 3.9793 31.1349 3.9793 28.9993C3.97975 15.1954 15.2525 3.96484 29.1093 3.96484Z" fill="#074A71"></path><path d="M71.1333 18.8552H79.9458C81.3624 18.8552 82.5193 19.0596 83.4146 19.468C84.3095 19.8763 85.0001 20.388 85.4864 21.0013C85.9691 21.6149 86.3007 22.2839 86.4782 23.0077C86.6556 23.7329 86.7438 24.4014 86.7438 25.0159C86.7438 25.6274 86.6551 26.2927 86.4782 27.0074C86.3007 27.7235 85.9691 28.3875 85.4864 28.9998C85.0001 29.6139 84.3095 30.1202 83.4146 30.5199C82.5198 30.9192 81.3629 31.1191 79.9458 31.1191H74.6303V38.7555H71.1328V18.8552H71.1333ZM74.6308 28.2756H79.7502C80.1428 28.2756 80.5431 28.2198 80.953 28.1083C81.3629 27.9955 81.74 27.8151 82.0858 27.5644C82.4302 27.3134 82.7104 26.9784 82.9247 26.5615C83.1399 26.1422 83.2472 25.6183 83.2472 24.9865C83.2472 24.3357 83.1526 23.7968 82.9674 23.3698C82.78 22.9429 82.5284 22.603 82.2118 22.3519C81.8947 22.1017 81.5308 21.9295 81.1209 21.8366C80.711 21.745 80.272 21.6974 79.8061 21.6974H74.6308V28.2756Z" fill="#074A71"></path><path d="M90.4922 18.8552H104.872V21.8651H93.9893V27.0777H104.06V29.9199H93.9893V35.7452H105.068V38.7555H90.4922V18.8552Z" fill="#074A71"></path><path d="M114.157 18.8552H117.879L125.572 38.7555H121.823L119.949 33.4877H111.976L110.101 38.7555H106.492L114.157 18.8552ZM112.926 30.8395H119.026L116.031 22.2834H115.947L112.926 30.8395Z" fill="#074A71"></path><path d="M154.555 18.8552H158.108L161.718 34.0723H161.773L165.802 18.8552H169.382L173.299 34.0723H173.355L177.076 18.8552H180.629L175.117 38.7555H171.565L167.563 23.5375H167.509L163.423 38.7555H159.815L154.555 18.8552Z" fill="#074A71"></path><path d="M183.258 18.8552H186.447V21.8651H183.258V18.8552ZM183.258 24.3452H186.447V38.7551H183.258V24.3452Z" fill="#074A71"></path><path d="M190.617 24.3451H193.639V26.4639L193.695 26.5197C194.18 25.7197 194.814 25.0929 195.597 24.6379C196.381 24.1824 197.248 23.9553 198.199 23.9553C199.783 23.9553 201.035 24.3641 201.948 25.1813C202.862 25.9998 203.319 27.2263 203.319 28.8602V38.7555H200.131V29.6964C200.093 28.5637 199.851 27.7416 199.402 27.2313C198.956 26.72 198.256 26.4644 197.305 26.4644C196.764 26.4644 196.278 26.5618 195.849 26.7572C195.42 26.9512 195.058 27.2217 194.758 27.5648C194.46 27.9093 194.228 28.3131 194.059 28.7772C193.891 29.2422 193.807 29.7344 193.807 30.2543V38.755H190.618V24.3451H190.617Z" fill="#074A71"></path><path d="M221.003 38.7551H217.982V36.8035H217.926C217.498 37.6397 216.872 38.2389 216.052 38.6019C215.231 38.9645 214.363 39.1444 213.45 39.1444C212.312 39.1444 211.319 38.9454 210.471 38.5462C209.622 38.1464 208.917 37.603 208.358 36.9154C207.799 36.2279 207.38 35.4157 207.099 34.4766C206.82 33.5389 206.68 32.53 206.68 31.4518C206.68 30.1519 206.858 29.027 207.211 28.0807C207.565 27.1312 208.036 26.3525 208.624 25.7379C209.211 25.1256 209.883 24.6751 210.639 24.3878C211.393 24.0995 212.163 23.9554 212.945 23.9554C213.395 23.9554 213.85 23.9975 214.317 24.0814C214.783 24.1643 215.23 24.2998 215.659 24.4848C216.088 24.671 216.486 24.9072 216.848 25.1959C217.212 25.4841 217.516 25.8222 217.758 26.2134H217.813V18.8552H221.002V38.7551H221.003ZM209.869 31.7047C209.869 32.3165 209.949 32.9221 210.107 33.5153C210.265 34.11 210.507 34.6393 210.834 35.1039C211.162 35.5685 211.576 35.9401 212.078 36.2197C212.582 36.4976 213.179 36.6372 213.87 36.6372C214.578 36.6372 215.189 36.489 215.702 36.1916C216.216 35.8939 216.634 35.5041 216.961 35.0205C217.287 34.5374 217.53 33.9939 217.689 33.3911C217.847 32.7874 217.926 32.1697 217.926 31.537C217.926 29.9407 217.567 28.6939 216.848 27.801C216.13 26.9113 215.157 26.4649 213.925 26.4649C213.179 26.4649 212.55 26.6181 212.037 26.9249C211.525 27.2318 211.104 27.6311 210.778 28.1237C210.451 28.6159 210.219 29.1716 210.079 29.7948C209.938 30.4166 209.869 31.052 209.869 31.7047Z" fill="#074A71"></path><path d="M131.669 18.8552H128.172V28.7755L131.669 25.2149V18.8552ZM136.902 26.798L144.875 18.8552H140.567L136.118 23.3852L128.173 31.4744V38.7555H131.67V32.0668L134.524 29.2514L141.071 38.7555H145.435L136.902 26.798Z" fill="#074A71"></path></g><defs><clipPath id="clip0_924_933"><rect width="221" height="58" fill="white"></rect></clipPath></defs></svg>